<svg width="72" height="72" viewBox="0 0 72 72" fill="none" xmlns="http://www.w3.org/2000/svg">
<rect width="72" height="72" rx="16" fill="url(#paint0_linear_5332_845)"/>
<path opacity="0.35" d="M56.8043 38.0806H44.3218V21.4372C44.3218 19.1383 46.1838 17.2764 48.4826 17.2764H52.6435C54.9423 17.2764 56.8043 19.1383 56.8043 21.4372V38.0806Z" fill="#FF5B50"/>
<path d="M44.3218 38.0806H56.8043V50.5631C56.8043 52.862 54.9423 54.724 52.6435 54.724H48.4826C46.1838 54.724 44.3218 52.862 44.3218 50.5631V38.0806Z" fill="#FF5B50"/>
<path opacity="0.35" d="M42.2412 44.3221H29.7587V31.8396C29.7587 29.5407 31.6206 27.6787 33.9195 27.6787H38.0804C40.3792 27.6787 42.2412 29.5407 42.2412 31.8396V44.3221Z" fill="#FF5B50"/>
<path d="M29.7587 44.3218H42.2412V50.5631C42.2412 52.8619 40.3792 54.7239 38.0804 54.7239H33.9195C31.6206 54.7239 29.7587 52.8619 29.7587 50.5631V44.3218Z" fill="#FF5B50"/>
<path opacity="0.35" d="M27.6781 36H15.1956V25.5979C15.1956 23.299 17.0575 21.437 19.3564 21.437H23.5173C25.8161 21.437 27.6781 23.299 27.6781 25.5979V36Z" fill="#FF5B50"/>
<path d="M15.1956 36H27.6781V50.563C27.6781 52.8618 25.8161 54.7238 23.5173 54.7238H19.3564C17.0575 54.7238 15.1956 52.8618 15.1956 50.563V36Z" fill="#FF5B50"/>
<defs>
<linearGradient id="paint0_linear_5332_845" x1="36" y1="0" x2="36" y2="72" gradientUnits="userSpaceOnUse">
<stop stop-color="#FFE9E1"/>
<stop offset="1" stop-color="#FDF2F1"/>
</linearGradient>
</defs>
</svg>
