<?xml version="1.0" encoding="UTF-8"?>
<svg id="Layer_1" data-name="Layer 1" xmlns="http://www.w3.org/2000/svg" viewBox="0 0 1000 148.82">
  <defs>
    <style>
      .cls-1 {
        fill: #1c1b18;
        stroke-width: 0px;
      }
    </style>
  </defs>
  <path class="cls-1" d="m61.97,68.09h50.59c.84,4.64,1.9,13.07,1.9,23.4,0,23.61-15.18,56.91-53.12,56.91C25.72,148.4,0,119.94,0,83.05,0,41.53,32.04,15.39,72.51,15.39c4.43,0,9.27.21,13.07.84l15.6,49.75-.21.21-21.5-18.13c-13.7-11.38-22.98-17.49-33.09-17.49s-19.18,6.54-19.18,23.61c0,37.52,26.77,72.09,54.6,72.09,9.06,0,14.33-4.01,17.92-9.06l-37.73-48.9v-.21Zm173.59,25.72c0,30.77-23.61,55.02-57.13,55.02s-57.13-24.24-57.13-55.02,23.61-55.02,57.13-55.02,57.13,24.24,57.13,55.02Zm-33.1,27.61c0-8.43-2.32-19.81-6.75-33.3-8.43-25.93-18.13-40.47-28.46-40.47-1.05,0-2.32.21-3.58.63-6.32,2.11-9.27,8.22-9.27,17.92,0,8.43,2.32,19.81,6.75,33.3,8.43,25.93,18.13,40.47,28.46,40.47,1.05,0,2.32-.21,3.58-.63,6.32-2.11,9.27-8.22,9.27-17.92Zm142.81-31.62c.21,1.69.21,3.37.21,5.27,0,23.61-11.8,53.33-45.95,53.33-30.35,0-57.33-27.82-57.33-66.4,0-40.89,32.04-66.61,68.3-66.61,4.43,0,9.27.21,13.07.84l15.6,49.75-.21.21-21.08-18.13c-13.49-11.59-21.08-16.23-30.57-16.23-12.65,0-18.97,10.12-18.97,24.03,0,28.88,18.13,60.92,45.11,60.92,20.66,0,27.82-13.28,31.62-27.19l.21.21Zm123.31,43.21c-1.48,4.21-8.43,15.18-23.61,15.18-19.82,0-27.83-14.75-33.31-32.88l-1.9-6.11c.21,1.26.21,2.32.21,3.58,0,17.92-10.54,35.62-32.04,35.62-18.97,0-28.46-10.96-28.46-24.03,0-16.65,12.23-25.72,49.96-43h.21l-.21-.63c-3.58-10.75-14.33-15.18-25.93-15.18-12.44,0-24.45,5.27-30.78,13.7l-.21-.21c2.95-16.65,17.29-39.42,47.64-39.42,26.35,0,42.16,14.54,49.75,37.94l14.55,44.69c3.16,9.48,5.69,12.22,9.91,12.22,2.11,0,3.16-.84,4.01-1.69l.21.21Zm-61.13-21.71c0-4.21-.84-9.28-2.74-14.97l-4.21-12.65c-14.33,8.43-17.29,19.39-17.29,28.46,0,10.96,5.27,16.02,11.81,16.02,7.38,0,12.44-6.11,12.44-16.86Zm103.71,22.13c0,5.9,3.37,10.54,9.7,12.65v.42h-53.33v-.42c5.9-4,6.96-10.96,6.96-16.86V62.18c0-10.96-3.58-17.71-12.44-20.66v-.42h48.69l-.84,28.25h.42l1.26-3.8c6.32-18.97,17.08-24.87,26.98-24.87h.84l10.54,33.52-.21.21c-11.38-5.27-17.92-6.32-27.4-6.32-7.8,0-11.17,2.53-11.17,2.53v62.82Zm144.81,12.65v.42h-44.27l.21-23.4h-.21c-1.48,5.27-8.64,24.24-30.14,24.24-24.03,0-36.89-20.24-36.89-46.37,0-34.36,23.19-59.23,61.13-59.23,4.22,0,5.9.21,5.9.21v-9.7c0-9.27-3.79-15.18-12.23-17.28v-.42l48.48-14.55h.42v133.43c0,5.9,1.69,10.54,7.59,12.65Zm-44.27-34.99v-59.65c-1.69-.63-3.79-1.26-7.8-1.26-12.44,0-25.29,10.33-25.29,41.1,0,26.77,9.06,37.31,19.81,37.31,4.85,0,13.28-2.32,13.28-17.5Zm101.6,34.99v.42h-51.86v-.42c5.9-2.11,7.59-6.74,7.59-12.65V32.25c0-9.27-3.79-15.18-12.22-17.28v-.42l48.48-14.55h.42v133.43c0,5.9,1.69,10.54,7.59,12.65Zm103.5-52.07c.63,2.95.84,5.9.84,8.64,0,24.66-20.45,45.74-45.95,45.74-33.51,0-52.91-23.82-52.91-55.44s20.02-53.33,48.48-53.33c19.6,0,34.78,9.91,41.11,26.98l-53.96,36.68c7.59,8.85,18.34,14.97,31.62,14.97,18.55,0,29.72-12.22,30.57-24.24h.21Zm-75.46-25.93c0,11.59,4.22,24.45,12.23,34.15l7.38-10.33c5.27-7.38,9.06-14.75,9.06-24.24,0-10.33-4.43-18.13-13.7-18.13-8.64,0-14.97,6.32-14.97,18.55Zm139.55,9.91c20.45,10.33,28.46,21.29,28.46,35.41,0,17.08-14.12,34.99-43.42,34.99-15.6,0-24.66-2.53-32.25-5.69l-14.33-44.05.21-.21,11.38,11.8c21.71,22.56,34.78,29.93,44.69,29.93,8.64,0,10.96-4.85,10.96-8.85,0-5.27-1.69-9.7-16.86-17.5l-18.76-9.48c-16.44-8.43-24.24-18.55-24.24-32.04,0-21.29,17.71-32.04,40.47-32.04,15.39,0,24.03,2.11,24.03,2.11l11.38,34.99-.21.21-10.96-9.06c-17.71-14.76-27.61-21.08-34.99-21.08-6.11,0-9.49,2.95-9.49,7.59,0,5.06,4.64,8.22,15.18,13.49l18.76,9.48Zm90.64,0c20.45,10.33,28.46,21.29,28.46,35.41,0,17.08-14.12,34.99-43.42,34.99-15.6,0-24.66-2.53-32.25-5.69l-14.33-44.05.21-.21,11.38,11.8c21.71,22.56,34.78,29.93,44.69,29.93,8.64,0,10.96-4.85,10.96-8.85,0-5.27-1.69-9.7-16.86-17.5l-18.76-9.48c-16.44-8.43-24.24-18.55-24.24-32.04,0-21.29,17.71-32.04,40.47-32.04,15.39,0,24.03,2.11,24.03,2.11l11.38,34.99-.21.21-10.96-9.06c-17.71-14.76-27.61-21.08-34.99-21.08-6.11,0-9.48,2.95-9.48,7.59,0,5.06,4.64,8.22,15.18,13.49l18.76,9.48Z"/>
</svg>