<svg id="rounded_AVL_CS" width="157px" height="41px" viewBox="0 0 157 41" version="1.1" xmlns="http://www.w3.org/2000/svg" xmlns:xlink="http://www.w3.org/1999/xlink">
      <title>Rounded AVL_CS </title>
      <desc>Created by FreshPing.</desc>
      <defs>
          <path d="M20.5,0 L135.5,0 C146.821837,-2.07978778e-15 156,9.17816263 156,20.5 L156,20.5 C156,31.8218374 146.821837,41 135.5,41 L20.5,41 C9.17816263,41 1.38652519e-15,31.8218374 0,20.5 L0,20.5 C-1.38652519e-15,9.17816263 9.17816263,2.07978778e-15 20.5,0 Z" id="path-1"></path>
      </defs>
      <g id="Page-1" stroke="none" stroke-width="1" fill="none" fill-rule="evenodd">
          <g id="007-copy-3" transform="translate(-1038.000000, -398.000000)">
              <g id="Group-3-Copy-2" transform="translate(719.500000, 173.000000)">
                  <g id="Group-6-Copy">
                      <g id="Group-2">
                          <g id="Group">
                              <g id="badge006_white" transform="translate(319.000000, 221.000000)" opacity="1">
                                  <g id="Group-10" transform="translate(0.000000, 4.000000)">
                                      <mask id="mask-2" fill="white">
                                          <use xlink:href="#path-1"></use>
                                      </mask>
                                      <use class="FP_theme" id="Rectangle" fill="#FFFFFF" xlink:href="#path-1"></use>
                                      <path d="M0,0 L78,0 L78,48 L3,48 C1.34314575,48 2.02906125e-16,46.6568542 0,45 L0,0 Z" id="Rectangle" fill="#4CC149" mask="url(#mask-2)"></path>
                                      <g id="badgeGroup-9" mask="url(#mask-2)">
                                          <g transform="translate(11.000000, 5.000000)">
                                              <g id="Group-11" stroke-width="1" fill-rule="evenodd" transform="translate(83.000000, 0.000000)">
                                                  <circle id="Oval" fill="#4CC149" fill-rule="nonzero" cx="-2" cy="8" r="8"></circle>
                                                  <polyline id="arrow" stroke="#FFFFFF" stroke-width="1.5" transform="translate(-2.000000, 9.0000000 ) rotate(-225.000000) translate(2.000000, -9.000000) " points="-4 7 -4 11 7.73070497e-12 11"></polyline>
                                              </g>
                                              <text id="99.9%" font-family="-apple-system, BlinkMacSystemFont, 'Segoe UI', Roboto, 'Helvetica Neue', Arial, sans-serif" font-size="12" font-weight="bold" letter-spacing="-0.01866668">
                                                  <tspan id="FP_avl_text" x="7" y="15" fill="#FFFFFF">100.00%</tspan>
                                              </text>
                                              <text id="Down" font-family="-apple-system, BlinkMacSystemFont, 'Segoe UI', Roboto, 'Helvetica Neue', Arial, sans-serif" font-size="12" font-weight="bold" letter-spacing="-0.32">
                                                  <tspan id="FP_cs_text" x="93" y="13" fill="#4A4A4A">Up</tspan>
                                              </text>
                                              <text id="Past-100-days" opacity="0.801455543" font-family="-apple-system, BlinkMacSystemFont, 'Segoe UI', Roboto, 'Helvetica Neue', Arial, sans-serif" font-size="9" font-weight="normal" letter-spacing="-0.012">
                                                  <tspan id="FP_days_text" x="0" y="26" fill="#CDEECD">Past 100 days</tspan>
                                              </text>
                                          </g>
                                      </g>
                                  </g>
                                  <path class="FP_text" d="M110.288,36 L109.624,36 L109.624,30.664 L113.12,30.664 L113.12,31.256 L110.288,31.256 L110.288,32.976 L113.064,32.976 L113.064,33.568 L110.288,33.568 L110.288,36 Z M114.608,36 L114.008,36 L114.008,32.136 L114.608,32.136 L114.608,32.752 C114.92,32.352 115.368,32.048 115.896,32.048 L115.896,32.664 C115.824,32.656 115.752,32.648 115.664,32.648 C115.288,32.648 114.784,32.952 114.608,33.264 L114.608,36 Z M118.4,36.096 C117.248,36.096 116.424,35.272 116.424,34.064 C116.424,32.944 117.224,32.04 118.328,32.04 C119.496,32.04 120.184,32.952 120.184,34.112 L120.184,34.264 L117.064,34.264 C117.112,34.992 117.616,35.6 118.448,35.6 C118.896,35.6 119.336,35.424 119.648,35.104 L119.936,35.496 C119.544,35.88 119.024,36.096 118.4,36.096 Z M119.592,33.816 C119.584,33.248 119.2,32.536 118.32,32.536 C117.496,32.536 117.088,33.232 117.056,33.816 L119.592,33.816 Z M122.384,36.096 C121.744,36.096 121.216,35.896 120.824,35.488 L121.128,35.056 C121.384,35.352 121.872,35.608 122.4,35.608 C122.992,35.608 123.32,35.328 123.32,34.944 C123.32,34.008 120.928,34.584 120.928,33.152 C120.928,32.544 121.44,32.04 122.36,32.04 C123.024,32.04 123.488,32.288 123.792,32.6 L123.512,33.016 C123.28,32.736 122.864,32.528 122.36,32.528 C121.832,32.528 121.504,32.792 121.504,33.136 C121.504,33.976 123.896,33.424 123.896,34.928 C123.896,35.576 123.376,36.096 122.384,36.096 Z M128.088,36 L127.488,36 L127.488,33.456 C127.488,32.768 127.144,32.576 126.616,32.576 C126.152,32.576 125.704,32.864 125.48,33.176 L125.48,36 L124.88,36 L124.88,30.664 L125.48,30.664 L125.48,32.696 C125.744,32.368 126.272,32.04 126.856,32.04 C127.664,32.04 128.088,32.432 128.088,33.272 L128.088,36 Z M131.192,36.096 C130.664,36.096 130.208,35.84 129.888,35.416 L129.888,37.472 L129.288,37.472 L129.288,32.136 L129.888,32.136 L129.888,32.712 C130.168,32.32 130.648,32.04 131.192,32.04 C132.208,32.04 132.912,32.808 132.912,34.064 C132.912,35.312 132.208,36.096 131.192,36.096 Z M131.04,35.56 C131.816,35.56 132.28,34.92 132.28,34.064 C132.28,33.208 131.816,32.576 131.04,32.576 C130.568,32.576 130.096,32.856 129.888,33.192 L129.888,34.936 C130.096,35.272 130.568,35.56 131.04,35.56 Z M134.168,31.584 C133.944,31.584 133.76,31.408 133.76,31.184 C133.76,30.96 133.944,30.776 134.168,30.776 C134.392,30.776 134.568,30.96 134.568,31.184 C134.568,31.408 134.392,31.584 134.168,31.584 Z M134.464,36 L133.864,36 L133.864,32.136 L134.464,32.136 L134.464,36 Z M138.872,36 L138.28,36 L138.28,33.472 C138.28,32.784 137.928,32.576 137.408,32.576 C136.936,32.576 136.496,32.864 136.264,33.176 L136.264,36 L135.664,36 L135.664,32.136 L136.264,32.136 L136.264,32.696 C136.536,32.368 137.064,32.04 137.648,32.04 C138.448,32.04 138.872,32.448 138.872,33.288 L138.872,36 Z M141.632,37.568 C140.984,37.568 140.536,37.44 140.072,36.984 L140.376,36.552 C140.696,36.928 141.08,37.072 141.632,37.072 C142.272,37.072 142.88,36.76 142.88,35.944 L142.88,35.36 C142.592,35.752 142.12,36.048 141.576,36.048 C140.568,36.048 139.856,35.296 139.856,34.048 C139.856,32.808 140.56,32.04 141.576,32.04 C142.096,32.04 142.568,32.296 142.88,32.72 L142.88,32.136 L143.48,32.136 L143.48,35.944 C143.48,37.168 142.576,37.568 141.632,37.568 Z M141.728,35.512 C142.2,35.512 142.664,35.224 142.88,34.888 L142.88,33.192 C142.664,32.864 142.2,32.576 141.728,32.576 C140.944,32.576 140.48,33.192 140.48,34.048 C140.48,34.896 140.944,35.512 141.728,35.512 Z" id="Freshping"
                                  fill="#7E7E7E" fill-rule="nonzero"></path>
                                  <path class="FP_by_text" d="M85.2,34.952 C85.408,35.288 85.88,35.56 86.36,35.56 C87.136,35.56 87.6,34.928 87.6,34.072 C87.6,33.216 87.136,32.576 86.36,32.576 C85.88,32.576 85.408,32.864 85.2,33.2 L85.2,34.952 Z M85.2,36 L84.6,36 L84.6,30.664 L85.2,30.664 L85.2,32.72 C85.512,32.296 85.984,32.04 86.504,32.04 C87.52,32.04 88.224,32.832 88.224,34.072 C88.224,35.328 87.512,36.096 86.504,36.096 C85.96,36.096 85.488,35.816 85.2,35.424 L85.2,36 Z M88.992,37.512 L89.08,36.968 C89.168,37.008 89.312,37.032 89.408,37.032 C89.672,37.032 89.848,36.944 89.984,36.624 L90.24,36.04 L88.624,32.136 L89.28,32.136 L90.56,35.304 L91.848,32.136 L92.496,32.136 L90.56,36.784 C90.328,37.344 89.936,37.56 89.424,37.568 C89.296,37.568 89.096,37.544 88.992,37.512 Z" id="by"
                                  fill="#7E7E7E" fill-rule="nonzero"></path>
                                  <g id="Group-20-Copy-2" transform="translate(96.000000, 0.000000)">
                                      <g id="Group-19">
                                          <g id="Group">
                                              <path class="FP_logo_img" d="M5,38 L5,38 C2.24,38 0,35.76 0,33 L0,33 C0,30.24 2.24,28 5,28 L8.75,28 C9.44,28 10,28.56 10,29.25 L10,33 C10,35.76 7.76,38 5,38 Z" id="Shape"
                                              fill="#4A4A4A" fill-rule="nonzero" opacity="0.5"></path>
                                              <polyline id="Path-2" stroke="#FFFFFF" stroke-width="0.5" stroke-linecap="round" stroke-linejoin="round" transform="translate(5.205552, 33.160040) scale(1, -1) translate(-5.205552, -33.160040) " points="1.92213786 33.2462893 3.14773206 33.2462893 4.40587833 30.994961 5.27628807 35.3251183 6.38893793 33.2462893 8.48896574 33.2462893"></polyline>
                                          </g>
                                      </g>
                                  </g>
                              </g>
                          </g>
                      </g>
                  </g>
              </g>
          </g>
          <g id="Group-23" transform="translate(35.500000, 11.000000)" display="none">
            <text id="No-Data" font-family="-apple-system, BlinkMacSystemFont, 'Segoe UI', Roboto, 'Helvetica Neue', Arial, sans-serif" font-size="14" font-weight="bold" letter-spacing="-0.01866668" fill="#4A4A4A">
                <tspan x="24.5833222" y="14">No Data</tspan>
            </text>
            <path d="M17.2295003,6.97933771 L20.0720801,17.2806858 C20.3658967,18.3454607 19.7409116,19.4468168 18.6761367,19.7406334 C18.3279747,19.8367061 17.9602945,19.8367061 17.6121325,19.7406334 L7.31078438,16.8980536 C6.24600949,16.604237 5.62102435,15.5028809 5.914841,14.438106 C6.00688445,14.1045458 6.18389512,13.8005724 6.42857291,13.5558946 L13.8873412,6.09712625 C14.6683898,5.31607767 15.9347198,5.31607767 16.7157684,6.09712625 C16.9604462,6.34180405 17.1374568,6.64577745 17.2295003,6.97933771 Z" id="Rectangle" fill="#4A4A4A" transform="translate(12.504790, 12.173343) rotate(-135.000000) translate(-12.504790, -12.173343) "/>
            <path d="M11.7206105,12.5490723 L11.7206105,10.1877441 C11.7206105,9.75613684 12.0704973,9.40625 12.5021046,9.40625 L12.5021046,9.40625 C12.9337119,9.40625 13.2835988,9.75613684 13.2835988,10.1877441 L13.2835988,12.5490723 C13.2835988,12.9806796 12.9337119,13.3305664 12.5021046,13.3305664 L12.5021046,13.3305664 C12.0704973,13.3305664 11.7206105,12.9806796 11.7206105,12.5490723 Z M12.5047902,7.72402811 C11.9408253,7.72402811 11.580962,7.39639139 11.580962,6.93447733 C11.580962,6.46719217 11.9408253,6.14492655 12.5047902,6.14492655 C13.0633839,6.14492655 13.4286183,6.46719217 13.4286183,6.93447733 C13.4286183,7.39639139 13.0633839,7.72402811 12.5047902,7.72402811 Z" id="i" fill="#FFFFFF" fill-rule="nonzero" transform="translate(12.504790, 9.737746) rotate(-180.000000) translate(-12.504790, -9.737746) "/>
        </g>
      </g>
  </svg>