<svg width="39" height="39" viewBox="0 0 39 39" fill="none" xmlns="http://www.w3.org/2000/svg">
<rect width="39" height="39" rx="16" fill="#FFBDB4"/>
<path opacity="0.35" d="M24.375 29.25H14.625C13.0094 29.25 11.7 27.9406 11.7 26.325V12.675C11.7 11.0594 13.0094 9.75 14.625 9.75H21.45L27.3 15.6V26.325C27.3 27.9406 25.9905 29.25 24.375 29.25Z" fill="#FF5B50"/>
<path d="M21.45 13.65V9.75L27.3 15.6H23.4C22.3226 15.6 21.45 14.7274 21.45 13.65Z" fill="#FF5B50"/>
<path d="M15.2167 24.4033C15.0162 24.4033 14.8149 24.3339 14.653 24.1917C14.2966 23.8799 14.2606 23.3385 14.5716 22.983L17.5699 19.5563C17.7344 19.3661 17.952 19.2719 18.2253 19.2633C18.4763 19.2668 18.7127 19.379 18.8737 19.5709L20.3438 21.3356L23.1142 17.8713C23.4115 17.5029 23.9486 17.4412 24.3187 17.7376C24.6879 18.034 24.7479 18.5729 24.4523 18.9421L21.0257 23.2254C20.8646 23.4259 20.6222 23.5441 20.3652 23.5466C20.0971 23.5852 19.8632 23.4353 19.6987 23.2391L18.1996 21.4393L15.8617 24.1103C15.6921 24.3048 15.4548 24.4033 15.2167 24.4033Z" fill="#FF5B50"/>
</svg>
