<svg width="39" height="39" viewBox="0 0 39 39" fill="none" xmlns="http://www.w3.org/2000/svg">
<rect width="39" height="39" rx="16" fill="#B1FFF6"/>
<path opacity="0.35" d="M27.5845 28.7396H11.4155C9.50176 28.7396 7.95068 27.1886 7.95068 25.2748V13.7255C7.95068 11.8118 9.50176 10.2607 11.4155 10.2607H27.5845C29.4982 10.2607 31.0493 11.8118 31.0493 13.7255V25.2748C31.0493 27.1886 29.4982 28.7396 27.5845 28.7396Z" fill="#6BBFE1"/>
<path d="M26.4294 21.8101C25.7353 21.8101 25.1209 22.1219 24.697 22.607C25.0516 23.0123 25.2745 23.5378 25.2745 24.1199C25.2745 24.702 25.0516 25.2263 24.697 25.6329C25.1209 26.118 25.7353 26.4298 26.4294 26.4298C27.7056 26.4298 28.7393 25.3961 28.7393 24.1199C28.7393 22.8437 27.7056 21.8101 26.4294 21.8101Z" fill="#6BBFE1"/>
<path d="M24.6973 22.607C24.2734 22.1219 23.659 21.8101 22.9649 21.8101C21.6887 21.8101 20.655 22.8437 20.655 24.1199C20.655 25.3961 21.6887 26.4298 22.9649 26.4298C23.659 26.4298 24.2734 26.118 24.6973 25.6329C24.3427 25.2263 24.1198 24.702 24.1198 24.1199C24.1198 23.5378 24.3427 23.0123 24.6973 22.607Z" fill="#6BBFE1"/>
<path d="M31.0493 14.8804H7.95068V18.3452H31.0493V14.8804Z" fill="#6BBFE1"/>
</svg>
