<svg width="39" height="39" viewBox="0 0 39 39" fill="none" xmlns="http://www.w3.org/2000/svg">
<rect width="39" height="39" rx="16" fill="#DFFFA8"/>
<path opacity="0.35" d="M11.2461 27.2379V12.7935C11.2461 11.0839 12.6317 9.69824 14.3413 9.69824H24.6588C26.3684 9.69824 27.754 11.0839 27.754 12.7935V27.2379C27.754 28.9475 26.3684 30.3332 24.6588 30.3332H14.3413C12.6317 30.3332 11.2461 28.9475 11.2461 27.2379Z" fill="#567B3E"/>
<path d="M22.0794 11.7617H16.9207C16.0653 11.7617 15.373 11.0684 15.373 10.2141C15.373 9.35984 16.0653 8.6665 16.9207 8.6665H22.0794C22.9347 8.6665 23.627 9.35984 23.627 10.2141C23.627 11.0684 22.9347 11.7617 22.0794 11.7617Z" fill="#567B3E"/>
<path d="M22.5952 20.0159C22.3311 20.0159 22.067 19.9148 21.8658 19.7136L20.8341 18.6819C20.4306 18.2785 20.4306 17.6264 20.8341 17.223C21.2375 16.8196 21.8895 16.8196 22.2929 17.223L22.5952 17.5253L23.9293 16.1912C24.3327 15.7878 24.9848 15.7878 25.3882 16.1912C25.7916 16.5946 25.7916 17.2467 25.3882 17.6501L23.3247 19.7136C23.1235 19.9148 22.8594 20.0159 22.5952 20.0159Z" fill="#567B3E"/>
<path d="M17.4365 20.0156H15.3731C14.8025 20.0156 14.3413 19.5534 14.3413 18.9839C14.3413 18.4144 14.8025 17.9521 15.3731 17.9521H17.4365C18.0071 17.9521 18.4683 18.4144 18.4683 18.9839C18.4683 19.5534 18.0071 20.0156 17.4365 20.0156Z" fill="#567B3E"/>
<path d="M22.5952 26.2063C22.3311 26.2063 22.067 26.1052 21.8658 25.904L20.8341 24.8723C20.4306 24.4689 20.4306 23.8168 20.8341 23.4134C21.2375 23.01 21.8895 23.01 22.2929 23.4134L22.5952 23.7157L23.9293 22.3817C24.3327 21.9782 24.9848 21.9782 25.3882 22.3817C25.7916 22.7851 25.7916 23.4371 25.3882 23.8405L23.3247 25.904C23.1235 26.1052 22.8594 26.2063 22.5952 26.2063Z" fill="#567B3E"/>
<path d="M17.4365 26.2061H15.3731C14.8025 26.2061 14.3413 25.7438 14.3413 25.1743C14.3413 24.6048 14.8025 24.1426 15.3731 24.1426H17.4365C18.0071 24.1426 18.4683 24.6048 18.4683 25.1743C18.4683 25.7438 18.0071 26.2061 17.4365 26.2061Z" fill="#567B3E"/>
</svg>
